<svg width="22" height="22" viewBox="0 0 22 22" fill="none" xmlns="http://www.w3.org/2000/svg">
<path fill-rule="evenodd" clip-rule="evenodd" d="M10.959 22C17.034 22 21.959 17.075 21.959 11C21.959 4.925 17.034 0 10.959 0C5.207 0 0.486 4.415 0 10.042L5.92 12.536C6.48 12.166 7.14121 11.9794 7.812 12.002L10.221 8.569C10.1566 7.71253 10.3533 6.85665 10.785 6.11416C11.2167 5.37166 11.8633 4.7774 12.6395 4.40967C13.4156 4.04195 14.285 3.91803 15.133 4.05423C15.9811 4.19044 16.7679 4.58039 17.3899 5.17269C18.0119 5.76499 18.4398 6.53184 18.6173 7.37218C18.7948 8.21253 18.7135 9.08693 18.3842 9.88016C18.0548 10.6734 17.4929 11.3482 16.7723 11.8157C16.0518 12.2832 15.2066 12.5214 14.348 12.499L10.942 14.913C11.0342 15.7598 10.7903 16.6089 10.2627 17.2777C9.73515 17.9464 8.96613 18.3813 8.12116 18.4888C7.27618 18.5963 6.42278 18.3677 5.74462 17.8523C5.06645 17.3369 4.61772 16.5759 4.495 15.733L0.372 13.996C1.677 18.616 5.922 22 10.959 22ZM7.709 17.629C7.23867 17.629 6.77889 17.4897 6.38769 17.2286C5.99649 16.9675 5.69142 16.5963 5.511 16.162L6.871 16.734C7.29536 16.8975 7.76672 16.8894 8.18521 16.7114C8.60371 16.5334 8.93647 16.1995 9.11301 15.7804C9.28955 15.3612 9.296 14.8899 9.13099 14.4661C8.96598 14.0423 8.64247 13.6994 8.229 13.51L6.983 12.985C7.31004 12.8804 7.65585 12.8479 7.99665 12.8896C8.33746 12.9314 8.6652 13.0464 8.95735 13.2268C9.2495 13.4072 9.49914 13.6487 9.68912 13.9347C9.87911 14.2207 10.0049 14.5444 10.058 14.8836C10.111 15.2229 10.0899 15.5696 9.99628 15.8999C9.90263 16.2302 9.73858 16.5364 9.51541 16.7973C9.29224 17.0582 9.01523 17.2678 8.70341 17.4115C8.39159 17.5552 8.05235 17.6288 7.709 17.629ZM14.613 6.502C14.1489 6.502 13.7038 6.68637 13.3756 7.01456C13.0474 7.34275 12.863 7.78787 12.863 8.252C12.863 8.71613 13.0474 9.16125 13.3756 9.48944C13.7038 9.81763 14.1489 10.002 14.613 10.002C15.0771 10.002 15.5222 9.81763 15.8504 9.48944C16.1786 9.16125 16.363 8.71613 16.363 8.252C16.363 7.78787 16.1786 7.34275 15.8504 7.01456C15.5222 6.68637 15.0771 6.502 14.613 6.502ZM11.863 8.252C11.863 7.52265 12.1527 6.82318 12.6685 6.30746C13.1842 5.79173 13.8837 5.502 14.613 5.502C15.3423 5.502 16.0418 5.79173 16.5575 6.30746C17.0733 6.82318 17.363 7.52265 17.363 8.252C17.363 8.98135 17.0733 9.68082 16.5575 10.1965C16.0418 10.7123 15.3423 11.002 14.613 11.002C13.8837 11.002 13.1842 10.7123 12.6685 10.1965C12.1527 9.68082 11.863 8.98135 11.863 8.252Z" fill="#CACACA"/>
</svg>
